<?xml version="1.0" encoding="UTF-8"?>
<svg width="45px" height="50px" viewBox="0 0 45 50" version="1.1" xmlns="http://www.w3.org/2000/svg" xmlns:xlink="http://www.w3.org/1999/xlink">
    <!-- Generator: Sketch 59.1 (86144) - https://sketch.com -->
    <title>Group</title>
    <desc>Created with Sketch.</desc>
    <g id="DASHBOARD" stroke="none" stroke-width="1" fill="none" fill-rule="evenodd">
        <g id="Dashboard" transform="translate(-578.000000, -146.000000)" fill-rule="nonzero">
            <g id="1-copy-2" transform="translate(491.000000, 110.000000)">
                <g id="noun_teachers_1248170" transform="translate(87.000000, 36.000000)">
                    <g id="Group">
                        <circle id="Oval" fill="#1F4772" cx="15.3493487" cy="5.07528337" r="5.07528337"></circle>
                        <polygon id="Rectangle" fill="#1F4772" transform="translate(9.039110, 27.509731) rotate(-58.889838) translate(-9.039110, -27.509731) " points="6.63430807 27.2638904 11.4439113 27.2638904 11.4439113 27.7555725 6.63430807 27.7555725"></polygon>
                        <polygon id="Rectangle" fill="#1F4772" transform="translate(8.195578, 27.001064) rotate(-58.861334) translate(-8.195578, -27.001064) " points="5.79079074 26.7551295 10.6003647 26.7551295 10.6003647 27.2469985 5.79079074 27.2469985"></polygon>
                        <path d="M41.203688,34.45483 L40.467772,30.6682456 L38.9276349,22.7408645 L38.0682203,18.3183894 L37.772585,16.7964388 C37.8059973,16.8374641 37.8387752,16.8753172 37.8726104,16.9182456 C39.2932668,18.7332939 40.9960244,22.2371426 41.8660125,28.8402977 C41.965192,29.59292 42.655642,30.1224412 43.4082643,30.0232617 C44.160675,29.9240822 44.6908307,29.2336322 44.5916512,28.48101 C43.6165623,21.0926662 41.6107681,17.0366689 39.6772966,14.783666 C37.8948148,12.6966672 36.1800034,12.2432752 35.7200558,12.1696836 C35.6083996,12.1419811 35.4077144,12.0941888 35.1450685,12.0402639 C35.1027745,14.0644561 33.8441042,15.6893927 32.294451,15.6893927 C30.7443749,15.6893927 29.4859161,14.0642446 29.4438335,12.0400524 C29.1809761,12.0939773 28.9805025,12.1417696 28.8684233,12.1694722 C28.4091101,12.2430638 26.6936644,12.6960328 24.9101252,14.783666 C23.9917104,15.8541279 23.0568009,17.3331501 22.2240315,19.3818728 L21.674632,19.0502876 C21.8630519,18.5926662 22.0592962,18.1519624 22.2654796,17.7315598 C22.2618846,17.7220436 22.2585011,17.7129504 22.2549061,17.7034343 C22.2591355,17.7121046 22.2627305,17.7203519 22.2667484,17.7290222 C22.882761,16.4728895 23.5782862,15.3842412 24.3514211,14.4654035 C23.247124,12.7243698 21.9396041,11.5285062 20.647733,10.7667907 C19.8054475,10.2662409 18.9876924,9.94670952 18.2509305,9.74242937 C17.4080105,10.2683556 16.4136779,10.573507 15.3493487,10.573507 C14.2845965,10.573507 13.2904754,10.2685671 12.4473439,9.74242937 C11.710582,9.94670952 10.8930384,10.2662409 10.0503299,10.7670022 C8.04072915,11.9520809 5.98883438,14.1811876 4.73100998,17.896295 C4.73079851,17.896718 4.73079851,17.8969295 4.73079851,17.8971409 L4.73079851,17.896718 C4.49120284,18.5983759 4.27846388,19.3550161 4.09469633,20.1668499 L0,26.9446794 L3.34355439,28.9648537 C3.34355439,28.9750042 3.34376586,28.9849433 3.34397733,28.9953054 C3.36533581,29.9162578 4.11838098,30.648156 5.03531551,30.648156 C5.04842666,30.648156 5.06132634,30.6479445 5.07443749,30.647733 C5.34131281,30.6418119 5.59127051,30.5722382 5.81331416,30.4571984 L8.85065979,32.2923363 L8.91917611,32.1787769 L9.61068347,47.2257232 C9.61068347,48.6700643 10.7815936,49.8401286 12.2250888,49.8401286 C13.6690069,49.8401286 14.8399171,48.6700643 14.8399171,47.2257232 L14.8399171,30.6160125 C15.0084588,30.6295466 15.1778464,30.6390628 15.3491372,30.6390628 C15.520428,30.6390628 15.6896041,30.6295466 15.8579344,30.6160125 L15.8579344,47.2257232 C15.8579344,48.6700643 17.0288445,49.8401286 18.4727626,49.8401286 C19.9162578,49.8401286 21.087168,48.6700643 21.087168,47.2257232 L21.8509981,30.6067078 C21.6932414,30.6466757 21.5291406,30.6697259 21.3603874,30.6697259 C21.2709355,30.6697259 21.1808493,30.6633818 21.0928777,30.6515395 C20.2918288,30.5458044 19.6639739,29.9758924 19.4400271,29.2480122 L19.4205718,29.1881661 C19.3520555,28.9377855 19.3309085,28.6702758 19.3668584,28.3970563 C19.4059804,28.1001523 19.4491203,27.8104382 19.4920487,27.5205126 L20.0797242,27.875571 C20.0511758,28.0747758 20.0230502,28.2758839 19.9959821,28.4801641 C19.8961682,29.2332093 20.4259009,29.9234478 21.1785231,30.0230502 C21.239638,30.0310861 21.3003299,30.035104 21.3601759,30.035104 C21.851844,30.035104 22.294451,29.7686517 22.5374302,29.3605143 L23.0809085,29.6889274 L24.1807647,30.3533666 L23.1295466,35.7631957 C23.1295466,35.7631957 24.8022754,36.6304348 27.7112587,37.1650313 L27.7112587,47.7173913 C27.7112587,48.8853409 28.6580105,49.8320927 29.8259601,49.8320927 C30.9934867,49.8320927 31.9406615,48.8853409 31.9406615,47.7173913 L31.9406615,37.5714769 C32.0578159,37.5731687 32.174336,37.5750719 32.2933937,37.5750719 C32.4124514,37.5750719 32.5287599,37.5731687 32.6457029,37.5714769 L32.6457029,47.7173913 C32.6457029,48.8853409 33.5920318,49.8320927 34.7604043,49.8320927 C35.9277195,49.8320927 36.8751057,48.8853409 36.8751057,47.7173913 L36.8751057,37.1650313 C38.8022331,36.8108188 40.1850364,36.3115378 40.8998054,36.0144223 C41.263957,35.8627982 41.4568178,35.7631957 41.4568178,35.7631957 L41.203688,34.45483 Z M3.33319235,28.2181526 L0.870834038,26.7304602 L3.7542294,21.9573676 C3.48270174,23.6884622 3.33171206,25.6449839 3.33128912,27.8645745 C3.33107765,27.9808831 3.33234647,28.0997293 3.33319235,28.2181526 Z M6.33839452,30.0332008 C6.58877516,29.730587 6.73659279,29.341059 6.72707664,28.9174844 C6.71840636,28.5590425 6.7145999,28.208425 6.7145999,27.8643631 C6.71438843,25.6743783 6.87235662,23.8035019 7.13923194,22.2100744 L12.312426,25.3343343 L8.63538318,31.4208679 L6.33839452,30.0332008 Z M13.3403823,23.208002 L14.4975469,14.6813145 C14.7720352,14.784089 15.060269,14.8378024 15.3489257,14.8375909 L15.3493487,14.8375909 L15.3506175,14.8375909 C15.6388513,14.8375909 15.9270851,14.7838775 16.2009389,14.681103 L17.3585265,23.208002 L15.3495601,25.7456437 L13.3403823,23.208002 Z M20.8699882,16.2870073 L17.8036711,16.2870073 L17.8036711,15.2296566 L20.8699882,15.2296566 L20.8699882,16.2870073 Z M21.4824057,19.6749704 L21.9892996,19.9811792 C21.2709355,21.8899086 20.640966,24.256471 20.1814414,27.1959059 L17.8059973,25.7608696 L21.4824057,19.6749704 Z M26.8165285,16.7900947 L26.5211047,18.3120453 L26.3551007,19.1663847 C26.3195737,19.036542 26.2836238,18.9075453 26.2468279,18.7808746 C25.8824649,19.4330486 25.5145069,20.2171798 25.1605058,21.1554728 L24.610472,20.8232533 C25.3296819,18.9462443 26.1114871,17.6611402 26.8165285,16.7900947 Z M24.387371,21.4295381 L29.2473778,24.3649552 L25.5709694,30.4519117 L22.7355777,28.7390036 C23.1447725,25.6794536 23.7326594,23.2904754 24.387371,21.4295381 Z M15.3493487,12.1058197 L16.1527237,12.1058197 L16.554517,13.6918457 L16.4934021,13.7882761 C16.1622399,14.0644561 15.7566402,14.2027576 15.3489257,14.2031805 C14.9412113,14.2027576 14.536246,14.0646676 14.2052952,13.789122 L14.1437574,13.6918457 L14.5455507,12.1058197 L15.3493487,12.1058197 L15.3493487,12.1058197 Z M8.44400271,17.7030113 C8.24162578,18.2560058 8.08281171,18.8373372 7.97263576,19.4417188 C7.85526984,20.0854339 7.79182879,20.7536796 7.79182879,21.4403231 C7.79182879,21.5839114 7.79542379,21.7264422 7.80071054,21.8683387 L7.38686347,21.618381 L7.26167315,21.5426747 C7.4490357,20.5891558 7.67573169,19.7411605 7.93182203,18.9921333 C7.9320335,18.9914989 7.93224497,18.991076 7.93266791,18.9904415 C8.09359668,18.5235155 8.26552191,18.098249 8.44400271,17.7030113 Z M33.5935121,17.8024023 L36.6598291,17.8024023 L36.6598291,18.859753 L33.5935121,18.859753 L33.5935121,17.8024023 Z" id="Shape" fill="#36A000"></path>
                        <polygon id="Rectangle" fill="#1F4772" transform="translate(25.973547, 26.539769) rotate(-58.902609) translate(-25.973547, -26.539769) " points="23.5687881 26.2939325 28.3783063 26.2939325 28.3783063 26.785606 23.5687881 26.785606"></polygon>
                        <polygon id="Rectangle" fill="#1F4772" transform="translate(25.130878, 26.031499) rotate(-58.848563) translate(-25.130878, -26.031499) " points="22.7260482 25.7855604 27.5357081 25.7855604 27.5357081 26.2774382 22.7260482 26.2774382"></polygon>
                        <path d="M34.7585011,10.0467349 C35.7149805,9.42945356 36.4426493,8.45563356 36.720944,7.25934698 C37.2900102,4.81432922 35.7697513,2.37079174 33.324945,1.80130266 C30.8797158,1.23223651 28.4363898,2.75291829 27.8666892,5.19772458 C27.4194299,7.1182964 28.2619269,9.03738792 29.8287092,10.0484267 C30.2565133,10.3248181 30.7384537,10.5337506 31.2628997,10.6557689 C32.5122653,10.9465403 33.7601506,10.6910844 34.7585011,10.0467349 Z" id="Path" fill="#1F4772"></path>
                    </g>
                </g>
            </g>
        </g>
    </g>
</svg>