<?xml version="1.0" standalone="no"?><!DOCTYPE svg PUBLIC "-//W3C//DTD SVG 20010904//EN" "http://www.w3.org/TR/2001/REC-SVG-20010904/DTD/svg10.dtd"><svg xmlns="http://www.w3.org/2000/svg" version="1.0" width="300.000000pt" height="300.000000pt" viewBox="0 0 300.000000 300.000000" preserveAspectRatio="xMidYMid meet">
<metadata>
Created by potrace 1.10, written by Peter Selinger 2001-2011
</metadata>
<g transform="translate(0.000000,300.000000) scale(0.100000,-0.100000)" fill="#069613" stroke="none">
<path d="M64 2980 c-56 -22 -54 9 -54 -793 l0 -739 34 -34 c29 -29 41 -34 79 -34 30 0 53 7 72 22 56 44 55 34 55 718 l-1 630 1251 0 1251 0 -1 -630 c0 -684 -1 -674 55 -718 19 -15 42 -22 72 -22 38 0 50 5 79 34 l34 34 0 738 c0 685 -2 741 -18 760 -9 12 -27 27 -39 33 -26 13 -2836 15 -2869 1z m2843 -31 c66 -41 63 -6 63 -770 l0 -691 -34 -34 c-41 -41 -74 -44 -113 -10 l-28 24 -5 647 c-5 625 -6 647 -24 661 -17 12 -206 14 -1268 14 -1197 0 -1249 -1 -1266 -18 -17 -17 -19 -47 -25 -328 -4 -170 -7 -461 -7 -646 l0 -337 -26 -20 c-38 -30 -71 -26 -110 13 l-34 34 0 696 c0 771 -4 726 65 767 29 18 83 19 1404 19 l1374 0 34 -21z"/>
<path d="M468 1346 c-128 -46 -217 -150 -238 -282 -31 -191 105 -377 295 -403 68 -9 151 3 210 30 57 27 130 100 163 163 24 45 27 62 27 151 0 89 -3 106 -28 156 -36 75 -117 150 -190 177 -67 25 -180 29 -239 8z m244 -54 c66 -29 132 -100 158 -170 18 -45 21 -72 18 -132 -7 -125 -69 -214 -186 -267 -72 -34 -192 -30 -266 7 -62 32 -130 107 -150 167 -19 55 -21 165 -4 214 29 87 102 159 191 191 67 24 173 20 239 -10z"/>
<path d="M530 1149 c-56 -23 -100 -85 -100 -140 0 -38 32 -97 67 -123 35 -26 102 -32 140 -12 42 21 81 70 89 111 8 42 -27 119 -67 148 -31 22 -95 31 -129 16z m106 -48 c93 -57 52 -201 -58 -201 -57 0 -108 51 -108 108 0 88 90 139 166 93z"/>
<path d="M1400 1351 c-93 -30 -172 -97 -217 -183 -25 -48 -28 -62 -28 -158 0 -101 1 -108 34 -168 73 -134 210 -203 360 -182 117 16 211 84 268 192 26 48 28 62 28 158 0 96 -3 110 -28 158 -36 68 -92 124 -159 158 -44 23 -68 28 -143 31 -49 1 -101 -1 -115 -6z m245 -65 c178 -88 221 -335 84 -490 -104 -119 -314 -129 -437 -21 -64 56 -102 140 -102 225 0 80 11 123 49 182 82 129 260 175 406 104z"/>
<path d="M1444 1146 c-51 -22 -89 -81 -89 -137 0 -54 22 -90 76 -127 50 -35 118 -27 164 18 63 61 70 139 18 201 -46 55 -109 71 -169 45z m112 -45 c93 -56 52 -201 -57 -201 -106 0 -148 145 -57 200 41 25 74 25 114 1z"/>
<path d="M2288 1337 c-95 -40 -157 -103 -196 -200 -21 -52 -24 -73 -20 -146 3 -74 9 -95 38 -149 99 -185 331 -243 508 -127 224 149 202 487 -40 611 -44 23 -69 28 -143 31 -78 3 -98 0 -147 -20z m263 -44 c66 -29 114 -76 149 -145 26 -52 30 -72 30 -137 0 -128 -59 -224 -172 -281 -52 -26 -72 -30 -138 -30 -66 0 -86 4 -138 31 -64 32 -118 85 -149 148 -14 27 -18 59 -18 131 0 87 3 100 30 149 36 65 99 118 168 143 66 24 173 20 238 -9z"/>
<path d="M2365 1146 c-102 -44 -122 -172 -39 -245 41 -36 72 -46 122 -38 42 7 107 68 118 111 16 64 -28 145 -93 172 -40 17 -69 17 -108 0z m133 -59 c16 -16 26 -40 29 -71 5 -42 3 -48 -30 -81 -28 -28 -43 -35 -75 -35 -110 0 -151 143 -58 202 41 25 100 19 134 -15z"/>
<path d="M423 591 c-103 -30 -173 -71 -254 -151 -98 -97 -149 -195 -157 -299 -4 -68 -4 -71 26 -100 26 -27 38 -31 85 -31 69 0 101 24 121 89 29 99 69 157 140 206 131 89 303 80 416 -22 57 -51 90 -103 115 -180 23 -71 52 -93 125 -93 76 0 102 21 130 105 42 126 129 210 249 241 178 45 359 -63 412 -244 19 -64 67 -102 129 -102 41 0 55 5 85 31 19 17 35 35 35 40 0 30 47 124 82 164 54 61 104 92 180 111 106 27 217 0 298 -73 57 -51 90 -103 115 -180 22 -70 52 -93 122 -93 49 0 58 4 84 31 37 40 39 101 5 194 -30 82 -64 134 -141 210 -218 217 -586 220 -804 5 l-60 -59 -58 57 c-220 216 -586 215 -806 0 l-58 -57 -62 60 c-67 66 -164 119 -262 144 -79 20 -214 18 -292 -4z m291 -41 c94 -24 163 -62 245 -135 34 -30 70 -55 81 -55 11 0 49 27 85 60 221 200 529 200 750 0 36 -33 74 -60 85 -60 10 0 49 26 85 59 84 74 143 106 241 131 183 47 363 2 501 -124 68 -62 106 -117 144 -208 36 -89 36 -112 0 -149 -54 -54 -107 -32 -141 59 -46 123 -109 194 -220 246 -57 27 -76 31 -150 31 -74 0 -93 -4 -150 -31 -111 -53 -165 -113 -215 -236 -21 -52 -33 -69 -61 -84 -33 -18 -35 -18 -69 0 -28 15 -40 32 -61 87 -41 106 -104 176 -198 224 -74 38 -84 40 -165 40 -75 0 -94 -4 -151 -31 -111 -52 -174 -123 -220 -247 -24 -64 -68 -102 -105 -91 -32 10 -64 44 -76 83 -38 117 -113 205 -217 254 -57 27 -79 32 -147 32 -172 0 -305 -96 -370 -266 -15 -38 -36 -76 -48 -84 -45 -31 -93 -11 -126 52 -9 17 -6 34 18 91 41 101 73 151 135 214 134 134 331 187 520 138z"/>
</g>
</svg>