<svg xmlns="http://www.w3.org/2000/svg" xmlns:xlink="http://www.w3.org/1999/xlink" width="79" height="77" viewBox="0 0 79 77" version="1.1">
    <!-- Generator: Sketch 55.2 (78181) - https://sketchapp.com -->
    <title>add-like</title>
    <desc>Created with Sketch.</desc>
    <g id="New-new" stroke="none" stroke-width="1" fill="none" fill-rule="evenodd">
        <g id="grades_by_student-copy-4" transform="translate(-730.000000, -767.000000)" fill-rule="nonzero">
            <g id="add-like" transform="translate(730.000000, 767.000000)">
                <path d="M78.9318033,28.4721311 C78.7696372,27.9721917 78.3372717,27.6079872 77.8170492,27.5331148 L52.3036066,23.8268852 L40.8937705,0.706885246 C40.6332838,0.271418693 40.163167,0.00482680735 39.6557377,0.00482680735 C39.1483085,0.00482680735 38.6781916,0.271418693 38.4177049,0.706885246 L27.0078689,23.8268852 L1.49180328,27.5331148 C0.968679755,27.6061084 0.53314252,27.9713608 0.370138346,28.4737709 C0.207134171,28.9761811 0.34527539,29.5275602 0.725901639,29.8937705 L19.1967213,47.8832787 L14.8321311,73.2944262 C14.7414346,73.8132134 14.9537059,74.3384209 15.3794021,74.6484994 C15.8050983,74.9585779 16.3700978,74.9995368 16.8360656,74.7540984 L38.5947541,63.3154098 C37.4914049,56.2351515 40.3323651,49.116028 46.0071957,44.7406727 C51.6820264,40.3653174 59.2896113,39.4285006 65.8563934,42.2963934 L78.5777049,29.8885246 C78.9552216,29.5219958 79.0924221,28.9731938 78.9318033,28.4721311 Z" id="Path" fill="#2A466F"/>
                <path d="M58.0163934,44.5901639 C49.324699,44.5901639 42.2786885,51.6361744 42.2786885,60.3278689 C42.2786885,69.0195633 49.324699,76.0655738 58.0163934,76.0655738 C66.7080879,76.0655738 73.7540984,69.0195633 73.7540984,60.3278689 C73.7540984,51.6361744 66.7080879,44.5901639 58.0163934,44.5901639 Z M64.5737705,61.6393443 L59.3278689,61.6393443 L59.3278689,66.8852459 C59.3278689,67.6095538 58.7407013,68.1967213 58.0163934,68.1967213 C57.2920856,68.1967213 56.704918,67.6095538 56.704918,66.8852459 L56.704918,61.6393443 L51.4590164,61.6393443 C50.7347085,61.6393443 50.147541,61.0521767 50.147541,60.3278689 C50.147541,59.603561 50.7347085,59.0163934 51.4590164,59.0163934 L56.704918,59.0163934 L56.704918,53.7704918 C56.704918,53.0461839 57.2920856,52.4590164 58.0163934,52.4590164 C58.7407013,52.4590164 59.3278689,53.0461839 59.3278689,53.7704918 L59.3278689,59.0163934 L64.5737705,59.0163934 C65.2980784,59.0163934 65.8852459,59.603561 65.8852459,60.3278689 C65.8852459,61.0521767 65.2980784,61.6393443 64.5737705,61.6393443 Z" id="Shape" fill="#36A000"/>
            </g>
        </g>
    </g>
</svg>