<svg xmlns="http://www.w3.org/2000/svg" xmlns:xlink="http://www.w3.org/1999/xlink" width="52" height="50" viewBox="0 0 52 50" version="1.1">
    <!-- Generator: Sketch 59.1 (86144) - https://sketch.com -->
    <title>calendar-date-2</title>
    <desc>Created with Sketch.</desc>
    <g id="DASHBOARD" stroke="none" stroke-width="1" fill="none" fill-rule="evenodd">
        <g id="Dashboard" transform="translate(-1051.000000, -146.000000)" fill-rule="nonzero">
            <g id="1-copy-4" transform="translate(967.000000, 110.000000)">
                <g id="calendar-date-2" transform="translate(84.000000, 36.000000)">
                    <path d="M7.75862069,43.9655172 L16.3793103,43.9655172 C16.8554179,43.9655172 17.2413793,43.5795558 17.2413793,43.1034483 L17.2413793,36.2068966 C17.2413793,35.730789 16.8554179,35.3448276 16.3793103,35.3448276 L7.75862069,35.3448276 C7.28251315,35.3448276 6.89655172,35.730789 6.89655172,36.2068966 L6.89655172,43.1034483 C6.89655172,43.5795558 7.28251315,43.9655172 7.75862069,43.9655172 Z" id="Path" fill="#36A000"/>
                    <path d="M7.75862069,31.8965517 L16.3793103,31.8965517 C16.8554179,31.8965517 17.2413793,31.5105903 17.2413793,31.0344828 L17.2413793,24.137931 C17.2413793,23.6618235 16.8554179,23.2758621 16.3793103,23.2758621 L7.75862069,23.2758621 C7.28251315,23.2758621 6.89655172,23.6618235 6.89655172,24.137931 L6.89655172,31.0344828 C6.89655172,31.5105903 7.28251315,31.8965517 7.75862069,31.8965517 Z" id="Path" fill="#36A000"/>
                    <path d="M21.5517241,43.9655172 L30.1724138,43.9655172 C30.6485213,43.9655172 31.0344828,43.5795558 31.0344828,43.1034483 L31.0344828,36.2068966 C31.0344828,35.730789 30.6485213,35.3448276 30.1724138,35.3448276 L21.5517241,35.3448276 C21.0756166,35.3448276 20.6896552,35.730789 20.6896552,36.2068966 L20.6896552,43.1034483 C20.6896552,43.5795558 21.0756166,43.9655172 21.5517241,43.9655172 Z" id="Path" fill="#36A000"/>
                    <path d="M21.5517241,31.8965517 L30.1724138,31.8965517 C30.6485213,31.8965517 31.0344828,31.5105903 31.0344828,31.0344828 L31.0344828,24.137931 C31.0344828,23.6618235 30.6485213,23.2758621 30.1724138,23.2758621 L21.5517241,23.2758621 C21.0756166,23.2758621 20.6896552,23.6618235 20.6896552,24.137931 L20.6896552,31.0344828 C20.6896552,31.5105903 21.0756166,31.8965517 21.5517241,31.8965517 Z" id="Path" fill="#36A000"/>
                    <path d="M35.3448276,31.8965517 L43.9655172,31.8965517 C44.4416248,31.8965517 44.8275862,31.5105903 44.8275862,31.0344828 L44.8275862,24.137931 C44.8275862,23.6618235 44.4416248,23.2758621 43.9655172,23.2758621 L35.3448276,23.2758621 C34.86872,23.2758621 34.4827586,23.6618235 34.4827586,24.137931 L34.4827586,31.0344828 C34.4827586,31.5105903 34.86872,31.8965517 35.3448276,31.8965517 Z" id="Path" fill="#36A000"/>
                    <path d="M46.5517241,7.75862069 L5.17241379,7.75862069 C2.31695037,7.76147188 0.00285118877,10.0755711 0,12.9310345 L0,44.8275862 C0.00285118877,47.6830496 2.31695037,49.9971488 5.17241379,50 L46.5517241,50 C49.4071876,49.9971488 51.7212867,47.6830496 51.7241379,44.8275862 L51.7241379,12.9310345 C51.7212867,10.0755711 49.4071876,7.76147188 46.5517241,7.75862069 Z M46.5517241,48.2758621 L5.17241379,48.2758621 C3.26798362,48.2758621 1.72413793,46.7320164 1.72413793,44.8275862 L1.72413793,18.9655172 L50,18.9655172 L50,44.8275862 C50,46.7320164 48.4561543,48.2758621 46.5517241,48.2758621 Z" id="Shape" fill="#1F4772"/>
                    <path d="M40.5172414,6.03448276 L40.5172414,1.72413793 C40.5172414,0.771922845 39.7453185,0 38.7931034,0 C37.8408884,0 37.0689655,0.771922845 37.0689655,1.72413793 L37.0689655,6.03448276 L40.5172414,6.03448276 Z" id="Path" fill="#36A000"/>
                    <path d="M14.6551724,6.03448276 L14.6551724,1.72413793 C14.6551724,0.771922845 13.8832496,0 12.9310345,0 C11.9788194,0 11.2068966,0.771922845 11.2068966,1.72413793 L11.2068966,6.03448276 L14.6551724,6.03448276 Z" id="Path" fill="#36A000"/>
                </g>
            </g>
        </g>
    </g>
</svg>