<svg xmlns="http://www.w3.org/2000/svg" xmlns:xlink="http://www.w3.org/1999/xlink" width="14" height="14" viewBox="0 0 14 14" version="1.1">
    <!-- Generator: Sketch 52.2 (67145) - http://www.bohemiancoding.com/sketch -->
    <title>calendar-date</title>
    <desc>Created with Sketch.</desc>
    <g id="Students" stroke="none" stroke-width="1" fill="none" fill-rule="evenodd">
        <g id="Mobile" transform="translate(-134.000000, -13.000000)" fill="#FFFFFF">
            <g id="calendar-date" transform="translate(134.000000, 13.000000)">
                <path d="M2.1,11.9 L4.43333333,11.9 C4.56219977,11.9 4.66666667,11.7955331 4.66666667,11.6666667 L4.66666667,9.8 C4.66666667,9.67113356 4.56219977,9.56666667 4.43333333,9.56666667 L2.1,9.56666667 C1.97113356,9.56666667 1.86666667,9.67113356 1.86666667,9.8 L1.86666667,11.6666667 C1.86666667,11.7955331 1.97113356,11.9 2.1,11.9 Z" id="Path"/>
                <path d="M2.1,8.63333333 L4.43333333,8.63333333 C4.56219977,8.63333333 4.66666667,8.52886644 4.66666667,8.4 L4.66666667,6.53333333 C4.66666667,6.40446689 4.56219977,6.3 4.43333333,6.3 L2.1,6.3 C1.97113356,6.3 1.86666667,6.40446689 1.86666667,6.53333333 L1.86666667,8.4 C1.86666667,8.52886644 1.97113356,8.63333333 2.1,8.63333333 Z" id="Path"/>
                <path d="M5.83333333,11.9 L8.16666667,11.9 C8.29553311,11.9 8.4,11.7955331 8.4,11.6666667 L8.4,9.8 C8.4,9.67113356 8.29553311,9.56666667 8.16666667,9.56666667 L5.83333333,9.56666667 C5.70446689,9.56666667 5.6,9.67113356 5.6,9.8 L5.6,11.6666667 C5.6,11.7955331 5.70446689,11.9 5.83333333,11.9 Z" id="Path"/>
                <path d="M5.83333333,8.63333333 L8.16666667,8.63333333 C8.29553311,8.63333333 8.4,8.52886644 8.4,8.4 L8.4,6.53333333 C8.4,6.40446689 8.29553311,6.3 8.16666667,6.3 L5.83333333,6.3 C5.70446689,6.3 5.6,6.40446689 5.6,6.53333333 L5.6,8.4 C5.6,8.52886644 5.70446689,8.63333333 5.83333333,8.63333333 Z" id="Path"/>
                <path d="M9.56666667,8.63333333 L11.9,8.63333333 C12.0288664,8.63333333 12.1333333,8.52886644 12.1333333,8.4 L12.1333333,6.53333333 C12.1333333,6.40446689 12.0288664,6.3 11.9,6.3 L9.56666667,6.3 C9.43780023,6.3 9.33333333,6.40446689 9.33333333,6.53333333 L9.33333333,8.4 C9.33333333,8.52886644 9.43780023,8.63333333 9.56666667,8.63333333 Z" id="Path"/>
                <path d="M3.26666667,3.26666667 C3.13780023,3.26666667 3.03333333,3.16219977 3.03333333,3.03333333 L3.03333333,0.233333333 C3.03333333,0.104466892 3.13780023,0 3.26666667,0 C3.39553311,-2.59052039e-17 3.5,0.104466892 3.5,0.233333333 L3.5,3.03333333 C3.5,3.16219977 3.39553311,3.26666667 3.26666667,3.26666667 Z" id="Path"/>
                <path d="M13.3,1.4 L11.4333333,1.4 L11.4333333,3.03333333 C11.4333333,3.41993266 11.1199327,3.73333333 10.7333333,3.73333333 C10.346734,3.73333333 10.0333333,3.41993266 10.0333333,3.03333333 L10.0333333,1.4 L3.96666667,1.4 L3.96666667,3.03333333 C3.96666667,3.41993266 3.65326599,3.73333333 3.26666667,3.73333333 C2.88006734,3.73333333 2.56666667,3.41993266 2.56666667,3.03333333 L2.56666667,1.4 L0.7,1.4 C0.313400675,1.4 1.03620816e-16,1.71340068 0,2.1 L0,12.8333333 C1.03620816e-16,13.2199327 0.313400675,13.5333333 0.7,13.5333333 L13.3,13.5333333 C13.6865993,13.5333333 14,13.2199327 14,12.8333333 L14,2.1 C14,1.71340068 13.6865993,1.4 13.3,1.4 Z M13.5333333,12.8333333 C13.5333333,12.9621998 13.4288664,13.0666667 13.3,13.0666667 L0.7,13.0666667 C0.571133558,13.0666667 0.466666667,12.9621998 0.466666667,12.8333333 L0.466666667,5.13333333 L13.5333333,5.13333333 L13.5333333,12.8333333 Z" id="Shape" fill-rule="nonzero"/>
                <path d="M10.7333333,3.26666667 C10.6044669,3.26666667 10.5,3.16219977 10.5,3.03333333 L10.5,0.233333333 C10.5,0.104466892 10.6044669,0 10.7333333,0 C10.8621998,-2.59052039e-17 10.9666667,0.104466892 10.9666667,0.233333333 L10.9666667,3.03333333 C10.9666667,3.16219977 10.8621998,3.26666667 10.7333333,3.26666667 Z" id="Path"/>
            </g>
        </g>
    </g>
</svg>