<svg xmlns="http://www.w3.org/2000/svg" xmlns:xlink="http://www.w3.org/1999/xlink" width="50" height="50" viewBox="0 0 50 50" version="1.1">
    <!-- Generator: Sketch 59.1 (86144) - https://sketch.com -->
    <title>circle-10</title>
    <desc>Created with Sketch.</desc>
    <g id="DASHBOARD" stroke="none" stroke-width="1" fill="none" fill-rule="evenodd">
        <g id="Dashboard" transform="translate(-1290.000000, -146.000000)" fill-rule="nonzero">
            <g id="1-copy-5" transform="translate(1205.000000, 110.000000)">
                <g id="circle-10" transform="translate(85.000000, 36.000000)">
                    <path d="M25,0 C11.215625,0 0,11.215625 0,25 C0,38.784375 11.215625,50 25,50 C38.784375,50 50,38.784375 50,25 C50,11.215625 38.784375,0 25,0 Z M40.625,40.2796875 L40.625,40.25625 C40.625,37.56875 39.24375,35.0703125 36.9671875,33.640625 L33.48125,31.4515625 C31.3671875,34.08125 28.490625,35.9375 25,35.9375 C21.509375,35.9375 18.6328125,34.08125 16.51875,31.4515625 L13.0328125,33.640625 C10.75625,35.0703125 9.375,37.56875 9.375,40.25625 L9.375,40.2796875 C5.515625,36.334375 3.125,30.94375 3.125,25 C3.125,12.9375 12.9375,3.125 25,3.125 C37.0625,3.125 46.875,12.9375 46.875,25 C46.875,30.94375 44.484375,36.334375 40.625,40.2796875 Z" id="Shape" fill="#1F4772"/>
                    <path d="M25,10.9375 C19.821875,10.9375 15.625,15.134375 15.625,20.3125 C15.625,25.490625 19.465625,32.8125 25,32.8125 C30.5984375,32.8125 34.375,25.490625 34.375,20.3125 C34.375,15.134375 30.178125,10.9375 25,10.9375 Z" id="Path" fill="#36A000"/>
                </g>
            </g>
        </g>
    </g>
</svg>