<svg xmlns="http://www.w3.org/2000/svg" xmlns:xlink="http://www.w3.org/1999/xlink" width="50" height="50" viewBox="0 0 50 50" version="1.1">
    <!-- Generator: Sketch 59.1 (86144) - https://sketch.com -->
    <title>class</title>
    <desc>Created with Sketch.</desc>
    <g id="DASHBOARD" stroke="none" stroke-width="1" fill="none" fill-rule="evenodd">
        <g id="Dashboard" transform="translate(-814.000000, -146.000000)" fill-rule="nonzero">
            <g id="1-copy-3" transform="translate(729.000000, 110.000000)">
                <g id="class" transform="translate(85.000000, 36.000000)">
                    <path d="M1.46484375,50 L14.7460938,50 L14.7460938,45.6054688 C14.7460938,41.5603638 11.46698,38.1835938 7.421875,38.1835938 C3.37677002,38.1835938 0,41.5603638 0,45.6054688 L0,48.5351562 C0,49.3442535 0.655746484,50 1.46484375,50 Z" id="Path" fill="#36A000"/>
                    <path d="M11.8164062,33.7890625 C11.8164062,31.3621521 9.84878535,29.3945312 7.421875,29.3945312 C4.99496465,29.3945312 2.9296875,31.3621521 2.9296875,33.7890625 C2.9296875,36.2159729 4.99496465,38.1835938 7.421875,38.1835938 C9.84878535,38.1835938 11.8164062,36.2159729 11.8164062,33.7890625 Z" id="Path" fill="#1F4772"/>
                    <path d="M17.6757812,45.6054688 L17.6757812,50 L32.421875,50 L32.421875,45.6054688 C32.421875,41.5603638 29.045105,38.1835938 25,38.1835938 C20.954895,38.1835938 17.6757812,41.5603638 17.6757812,45.6054688 Z" id="Path" fill="#36A000"/>
                    <path d="M29.4921875,33.7890625 C29.4921875,31.3621521 27.4269104,29.3945312 25,29.3945312 C22.5730896,29.3945312 20.6054688,31.3621521 20.6054688,33.7890625 C20.6054688,36.2159729 22.5730896,38.1835938 25,38.1835938 C27.4269104,38.1835938 29.4921875,36.2159729 29.4921875,33.7890625 Z" id="Path" fill="#1F4772"/>
                    <path d="M42.6757812,38.1835938 C38.6306763,38.1835938 35.3515625,41.5603638 35.3515625,45.6054688 L35.3515625,50 L48.5351562,50 C49.3442535,50 50,49.3442535 50,48.5351562 L50,45.6054688 C50,41.5603638 46.7208862,38.1835938 42.6757812,38.1835938 Z" id="Path" fill="#36A000"/>
                    <path d="M47.0703125,33.7890625 C47.0703125,36.2159729 45.1026916,38.1835938 42.6757812,38.1835938 C40.2488709,38.1835938 38.28125,36.2159729 38.28125,33.7890625 C38.28125,31.3621521 40.2488709,29.3945312 42.6757812,29.3945312 C45.1026916,29.3945312 47.0703125,31.3621521 47.0703125,33.7890625 Z" id="Path" fill="#1F4772"/>
                    <path d="M47.0703125,10.3515625 C47.0703125,12.7784729 45.1026916,14.7460938 42.6757812,14.7460938 C40.2488709,14.7460938 38.28125,12.7784729 38.28125,10.3515625 C38.28125,7.92465215 40.2488709,5.95703125 42.6757812,5.95703125 C45.1026916,5.95703125 47.0703125,7.92465215 47.0703125,10.3515625 Z" id="Path" fill="#1F4772"/>
                    <path d="M42.6757812,14.7460938 C38.6306763,14.7460938 35.3515625,18.0252075 35.3515625,22.0703125 L35.3515625,33.7890625 C35.3515625,29.750824 38.6375428,26.4648438 42.6757812,26.4648438 C46.7140197,26.4648438 50,29.750824 50,33.7890625 L50,22.0703125 C50,18.0252075 46.7208862,14.7460938 42.6757812,14.7460938 Z" id="Path" fill="#36A000"/>
                    <path d="M1.46484375,23.5351562 L32.421875,23.5351562 L32.421875,22.0703125 C32.421875,19.2871094 33.5449219,16.7663574 35.3515625,14.9169922 L35.3515625,1.46484375 C35.3515625,0.655365039 34.6961975,0 33.8867188,0 L1.46484375,0 C0.655365039,0 0,0.655365039 0,1.46484375 L0,22.0703125 C0,22.8797912 0.655365039,23.5351562 1.46484375,23.5351562 Z M17.6757812,7.421875 C17.6757812,6.61239629 18.3311463,5.95703125 19.140625,5.95703125 C19.9501037,5.95703125 20.6054688,6.61239629 20.6054688,7.421875 L20.6054688,16.2109375 C20.6054688,17.0204162 19.9501037,17.6757812 19.140625,17.6757812 C18.3311463,17.6757812 17.6757812,17.0204162 17.6757812,16.2109375 L17.6757812,7.421875 Z M11.8164062,10.3515625 C11.8164062,9.54208379 12.4717713,8.88671875 13.28125,8.88671875 C14.0907287,8.88671875 14.7460938,9.54208379 14.7460938,10.3515625 L14.7460938,16.2109375 C14.7460938,17.0204162 14.0907287,17.6757812 13.28125,17.6757812 C12.4717713,17.6757812 11.8164062,17.0204162 11.8164062,16.2109375 L11.8164062,10.3515625 Z M5.95703125,13.28125 C5.95703125,12.4717713 6.61239629,11.8164062 7.421875,11.8164062 C8.23135371,11.8164062 8.88671875,12.4717713 8.88671875,13.28125 L8.88671875,16.2109375 C8.88671875,17.0204162 8.23135371,17.6757812 7.421875,17.6757812 C6.61239629,17.6757812 5.95703125,17.0204162 5.95703125,16.2109375 L5.95703125,13.28125 Z" id="Shape" fill="#1F4772"/>
                </g>
            </g>
        </g>
    </g>
</svg>