<svg xmlns="http://www.w3.org/2000/svg" xmlns:xlink="http://www.w3.org/1999/xlink" width="14" height="14" viewBox="0 0 14 14" version="1.1">
    <!-- Generator: Sketch 52.2 (67145) - http://www.bohemiancoding.com/sketch -->
    <title>school</title>
    <desc>Created with Sketch.</desc>
    <g id="Students" stroke="none" stroke-width="1" fill="none" fill-rule="evenodd">
        <g id="Mobile" transform="translate(-81.000000, -13.000000)" fill="#FFFFFF" fill-rule="nonzero">
            <g id="school" transform="translate(81.000000, 13.000000)">
                <path d="M13.5625,7.875 L10.5,7.875 L10.5,6.125 C10.5,5.9836875 10.43175,5.851125 10.3166875,5.768875 L7.4375,3.7121875 L7.4375,2.1875 L9.625,2.1875 C9.8665,2.1875 10.0625,1.9915 10.0625,1.75 L10.0625,0.4375 C10.0625,0.196 9.8665,0 9.625,0 L7,0 C6.7585,0 6.5625,0.196 6.5625,0.4375 L6.5625,3.7121875 L3.6833125,5.768875 C3.56825,5.851125 3.5,5.9836875 3.5,6.125 L3.5,7.875 L0.4375,7.875 C0.196,7.875 0,8.071 0,8.3125 L0,13.5625 C0,13.804 0.196,14 0.4375,14 L5.6875,14 L5.6875,10.9375 C5.6875,10.696 5.8835,10.5 6.125,10.5 L7.875,10.5 C8.1165,10.5 8.3125,10.696 8.3125,10.9375 L8.3125,14 L13.5625,14 C13.804,14 14,13.804 14,13.5625 L14,8.3125 C14,8.071 13.804,7.875 13.5625,7.875 Z M3.5,10.9375 C3.5,11.179 3.304,11.375 3.0625,11.375 L2.1875,11.375 C1.946,11.375 1.75,11.179 1.75,10.9375 L1.75,10.0625 C1.75,9.821 1.946,9.625 2.1875,9.625 L3.0625,9.625 C3.304,9.625 3.5,9.821 3.5,10.0625 L3.5,10.9375 Z M7.875,8.3125 C7.875,8.554 7.679,8.75 7.4375,8.75 L6.5625,8.75 C6.321,8.75 6.125,8.554 6.125,8.3125 L6.125,7.4375 C6.125,7.196 6.321,7 6.5625,7 L7.4375,7 C7.679,7 7.875,7.196 7.875,7.4375 L7.875,8.3125 Z M12.25,10.9375 C12.25,11.179 12.054,11.375 11.8125,11.375 L10.9375,11.375 C10.696,11.375 10.5,11.179 10.5,10.9375 L10.5,10.0625 C10.5,9.821 10.696,9.625 10.9375,9.625 L11.8125,9.625 C12.054,9.625 12.25,9.821 12.25,10.0625 L12.25,10.9375 Z" id="Shape"/>
            </g>
        </g>
    </g>
</svg>