<svg xmlns="http://www.w3.org/2000/svg" xmlns:xlink="http://www.w3.org/1999/xlink" width="50" height="50" viewBox="0 0 50 50" version="1.1">
    <!-- Generator: Sketch 59.1 (86144) - https://sketch.com -->
    <title>student</title>
    <desc>Created with Sketch.</desc>
    <g id="DASHBOARD" stroke="none" stroke-width="1" fill="none" fill-rule="evenodd">
        <g id="Dashboard" transform="translate(-338.000000, -146.000000)" fill-rule="nonzero">
            <g id="1-copy" transform="translate(253.000000, 110.000000)">
                <g id="student" transform="translate(85.000000, 36.000000)">
                    <path d="M25,0 C20.153418,0 16.2109375,4.04013672 16.2109375,8.88671875 C16.2109375,13.7333008 20.153418,17.6757812 25,17.6757812 C29.846582,17.6757812 33.7890625,13.7333008 33.7890625,8.88671875 C33.7890625,4.04013672 29.846582,0 25,0 Z" id="Path" fill="#1F4772"/>
                    <path d="M27.9296875,17.6757812 L25,17.6757812 L22.0703125,17.6757812 C20.0041016,17.6757812 18.0075195,18.2098633 16.1923828,19.118457 C19.275293,19.950293 22.1780273,21.1483398 25,22.7680664 C27.8220703,21.1483398 30.724707,19.950293 33.8076172,19.118457 C31.9924805,18.2098633 29.9958984,17.6757812 27.9296875,17.6757812 Z" id="Path" fill="#1F4772"/>
                    <path d="M47.0703125,26.4648438 C45.4522461,26.4648438 44.140625,27.7764648 44.140625,29.3945312 L44.140625,35.2539062 C44.140625,36.8717773 45.4522461,38.1835938 47.0703125,38.1835938 C48.6883789,38.1835938 50,36.8717773 50,35.2539062 L50,29.3945312 C50,27.7764648 48.6883789,26.4648438 47.0703125,26.4648438 Z" id="Path" fill="#1F4772"/>
                    <path d="M2.9296875,26.4648438 C1.31162109,26.4648438 0,27.7764648 0,29.3945312 L0,35.2539062 C0,36.8717773 1.31162109,38.1835938 2.9296875,38.1835938 C4.54775391,38.1835938 5.859375,36.8717773 5.859375,35.2539062 L5.859375,29.3945312 C5.859375,27.7764648 4.54775391,26.4648438 2.9296875,26.4648438 Z" id="Path" fill="#1F4772"/>
                    <path d="M4.39453125,20.6054688 C3.58486328,20.6054688 2.9296875,21.2606445 2.9296875,22.0703125 L2.9296875,23.5351562 C6.16123047,23.5351562 8.7890625,26.1629883 8.7890625,29.3945312 L8.7890625,35.2539062 C8.7890625,38.4854492 6.16123047,41.1132812 2.9296875,41.1132812 L2.9296875,42.578125 C2.9296875,43.387793 3.58486328,44.0429688 4.39453125,44.0429688 C11.9043945,44.0429688 17.9091797,46.4146484 23.5351562,50 L23.5351562,25.3509766 C17.8837891,22.1107422 11.8069336,20.6054688 4.39453125,20.6054688 Z" id="Path" fill="#36A000"/>
                    <path d="M47.0703125,23.5351562 L47.0703125,22.0703125 C47.0703125,21.2606445 46.4151367,20.6054688 45.6054688,20.6054688 C38.1930664,20.6054688 32.1162109,22.1107422 26.4648438,25.3509766 L26.4648438,50 C32.0908203,46.4146484 38.0956055,44.0429688 45.6054688,44.0429688 C46.4151367,44.0429688 47.0703125,43.387793 47.0703125,42.578125 L47.0703125,41.1132812 C43.8387695,41.1132812 41.2109375,38.4854492 41.2109375,35.2539062 L41.2109375,29.3945312 C41.2109375,26.1629883 43.8387695,23.5351562 47.0703125,23.5351562 Z" id="Path" fill="#36A000"/>
                </g>
            </g>
        </g>
    </g>
</svg>